<svg height="511pt" viewBox="0 -106 511.99921 511" width="511pt" xmlns="http://www.w3.org/2000/svg" xmlns:xlink="http://www.w3.org/1999/xlink"><linearGradient id="a" gradientTransform="matrix(.323916 0 0 -.323916 0 405.515512)" gradientUnits="userSpaceOnUse" x1="111.2303" x2="1155.8124" y1="322.4915" y2="1367.0999"><stop offset="0" stop-color="#41dfd0"/><stop offset="1" stop-color="#ee83ef"/></linearGradient><path d="m508.640625 107.402344c0-.058594-.066406-.101563-.09375-.171875-9.210937-28.007813-35.339844-46.953125-64.824219-47-2.21875 0-4.40625.128906-6.570312.332031-.199219-.050781-.359375-.175781-.566406-.210938l-51.195313-8.535156c-4.625-.914062-9.113281 2.097656-10.027344 6.71875-.910156 4.625 2.097657 9.113282 6.71875 10.023438.167969.035156.339844.0625.507813.085937l22.363281 3.730469c-5.433594 3.765625-10.296875 8.296875-14.4375 13.457031h-23.59375c-4.710937 0-8.53125 3.820313-8.53125 8.53125 0 4.710938 3.820313 8.535157 8.53125 8.535157h13.558594c-.566407 1.425781-1.097657 2.871093-1.585938 4.332031 0 .070312-.078125.105469-.09375.171875v.128906c-1.308593 4.046875-2.230469 8.210938-2.757812 12.433594h-34.71875c-4.714844 0-8.535157 3.820312-8.535157 8.53125 0 4.714844 3.820313 8.535156 8.535157 8.535156h34.71875c.734375 5.855469 2.226562 11.59375 4.4375 17.066406h-13.558594c-4.710937 0-8.53125 3.820313-8.53125 8.53125 0 4.710938 3.820313 8.535156 8.53125 8.535156h23.59375c3.707031 4.582032 7.984375 8.671876 12.722656 12.175782.136719.109375.214844.28125.359375.382812.164063.09375.332032.179688.503906.257813.289063.203125.5625.433593.851563.636719l-22.363281 3.730468c-4.648438.785156-7.777344 5.191406-6.992188 9.835938.695313 4.097656 4.238282 7.101562 8.390625 7.109375.472657.003906.945313-.035157 1.410157-.117188l51.195312-8.535156c.207031 0 .367188-.160156.566406-.210937 2.164063.203124 4.351563.332031 6.570313.332031 14.222656-.007813 28.082031-4.484375 39.617187-12.800781.171875-.078126.339844-.160157.503906-.253907.144532-.105469.222657-.273437.359376-.386719 23.664062-17.339843 33.523437-47.90625 24.457031-75.808593zm-56.386719-29.335938c15.761719 2.683594 29.371094 12.566406 36.804688 26.726563l-19.492188 6.328125-17.3125-12.574219zm-8.53125 35.378906 14.316406 10.402344-5.46875 16.824219h-17.699218l-5.46875-16.824219zm-8.535156-35.378906v20.476563l-17.3125 12.578125-19.488281-6.332032c7.429687-14.15625 21.039062-24.039062 36.800781-26.722656zm-28.011719 86.183594c-11.3125-11.355469-16.53125-27.421875-14.046875-43.253906l19.472656 6.324218 6.613282 20.359376zm36.546875 15.445312c-7.894531-.003906-15.679687-1.851562-22.734375-5.394531l12.03125-16.5625h21.402344l12.03125 16.5625c-7.054687 3.542969-14.839844 5.390625-22.730469 5.394531zm36.546875-15.410156-12.039062-16.574218 6.609375-20.359376 19.472656-6.320312c2.484375 15.832031-2.730469 31.898438-14.042969 43.253906zm-377.871093-27.253906c0 23.5625 19.101562 42.664062 42.664062 42.664062s42.667969-19.101562 42.667969-42.664062c0-23.566406-19.105469-42.667969-42.667969-42.667969-23.550781.027344-42.636719 19.113281-42.664062 42.667969zm68.265624 0c0 14.136719-11.464843 25.597656-25.601562 25.597656s-25.597656-11.460937-25.597656-25.597656c0-14.140625 11.460937-25.601562 25.597656-25.601562s25.601562 11.460937 25.601562 25.601562zm93.863282 42.664062c4.710937 0 8.53125-3.820312 8.53125-8.535156v-34.128906c0-26.71875-12.757813-42.667969-34.132813-42.667969s-34.132812 15.949219-34.132812 42.667969v34.128906c0 4.714844 3.820312 8.535156 8.535156 8.535156 4.710937 0 8.53125-3.820312 8.53125-8.535156v-25.597656h34.132813v25.597656c0 4.714844 3.820312 8.535156 8.535156 8.535156zm-42.085938-51.199218c2.558594-17.066406 12.800782-17.066406 16.484375-17.066406 3.6875 0 13.953125 0 16.488281 17.066406zm84.75-25.597656v51.195312c0 4.714844 3.820313 8.535156 8.535156 8.535156h17.066407c4.710937 0 8.53125 3.820313 8.53125 8.53125 0 4.714844-3.820313 8.535156-8.53125 8.535156h-17.066407c-14.140624 0-25.601562-11.460937-25.601562-25.597656v-51.199218c0-4.714844 3.820312-8.535157 8.535156-8.535157 4.710938 0 8.53125 3.820313 8.53125 8.535157zm-307.191406 42.664062v-17.066406c0-18.851563 15.28125-34.132813 34.132812-34.132813h34.132813v-17.066406c0-4.710937 3.820313-8.53125 8.53125-8.53125 4.714844 0 8.535156 3.820313 8.535156 8.53125v25.601563c0 4.710937-3.820312 8.53125-8.535156 8.53125h-42.664063c-9.425781 0-17.066406 7.640624-17.066406 17.066406v17.066406c0 9.425781 7.640625 17.066406 17.066406 17.066406h17.066407c9.425781 0 17.066406-7.640625 17.066406-17.066406h-17.066406c-4.714844 0-8.535157-3.820312-8.535157-8.53125 0-4.714844 3.820313-8.535156 8.535157-8.535156h25.597656c4.714844 0 8.535156 3.820312 8.535156 8.535156v8.53125c0 18.851562-15.28125 34.132812-34.132812 34.132812h-17.066407c-18.851562 0-34.132812-15.28125-34.132812-34.132812zm34.132812 153.597656v-17.066406h17.066407v17.066406zm102.398438 0h-17.066406v-17.066406h17.066406zm68.261719 0v-17.066406h17.066406v17.066406zm85.332031 0v-17.066406h17.066406v17.066406zm-290.125-76.800781c0-4.710937 3.820312-8.53125 8.535156-8.53125h324.257813c4.710937 0 8.53125 3.820313 8.53125 8.53125 0 4.714844-3.820313 8.535156-8.53125 8.535156h-324.257813c-4.714844 0-8.535156-3.820312-8.535156-8.535156zm0 34.132813c0-4.710938 3.820312-8.53125 8.535156-8.53125h324.257813c4.710937 0 8.53125 3.820312 8.53125 8.53125 0 4.714843-3.820313 8.535156-8.53125 8.535156h-324.257813c-4.714844 0-8.535156-3.820313-8.535156-8.535156zm0-213.328126c0-4.710937 3.820312-8.53125 8.535156-8.53125h324.257813c4.710937 0 8.53125 3.820313 8.53125 8.53125 0 4.714844-3.820313 8.535157-8.53125 8.535157h-324.257813c-4.714844 0-8.535156-3.820313-8.535156-8.535157zm0-34.132812c0-4.710938 3.820312-8.53125 8.535156-8.53125h324.257813c4.710937 0 8.53125 3.820312 8.53125 8.53125 0 4.714844-3.820313 8.535156-8.53125 8.535156h-324.257813c-4.714844 0-8.535156-3.820312-8.535156-8.535156zm0 0" fill="url(#a)"/></svg>